# xmcd
#
# Track frame offsets:
#	150
#	16673
#	29589
#	45568
#	60301
#	75125
#	90157
#	105639
#	117507
#	132202
#	145701
#	160143
#	176932
#	190268
#	197797
#	214172
#	228298
#	245059
#	257102
#	271361
#
# Disc length: 3822 seconds
#
# Revision: 0
# Processed by: cddbd v1.5.2PL0 Copyright (c) Steve Scherf et al.
# Submitted via: EasyCDDAExtractor 11.0.3.1
#
DISCID=0b0eec14
DTITLE=Anne Mattila - 40 unohtumatonta laulua
DYEAR=2008
DGENRE=Tango
TTITLE0=Perutaan häät
TTITLE1=Katsees kuin tulta
TTITLE2=Enkeleitä, onko heitä
TTITLE3=Missä hän on
TTITLE4=Tähdet, tähdet
TTITLE5=Kaipuuni on uskomaton
TTITLE6=Tuhlaajatyttö palaa
TTITLE7=Taivaankartta
TTITLE8=Asfalttiviidakko
TTITLE9=Tyynyyn jäljet jää
TTITLE10=Unihiekkaa
TTITLE11=Samaa verta suonissaan
TTITLE12=Äidin syntymäpäivä
TTITLE13=Äidin sydän
TTITLE14=Rannalla kyynelten meren
TTITLE15=Tuletko vielä mua vastaan
TTITLE16=Pienen hetken
TTITLE17=En vastaa jos soitat
TTITLE18=Kutsuvasti rummut soivat
TTITLE19=Tuuli silloinkin
EXTD=
EXTT0=
EXTT1=
EXTT2=
EXTT3=
EXTT4=
EXTT5=
EXTT6=
EXTT7=
EXTT8=
EXTT9=
EXTT10=
EXTT11=
EXTT12=
EXTT13=
EXTT14=
EXTT15=
EXTT16=
EXTT17=
EXTT18=
EXTT19=
PLAYORDER=
